# xmcd
#
# Track frame offsets:
#	150
#	13455
#	32088
#	41305
#	60183
#	75693
#	95120
#	107520
#	128898
#	141430
#
# Disc length: 2090 seconds
# Revision: 4
# Processed by: cddbd v1.5.2PL0 Copyright (c) Steve Scherf et al.
# Submitted via: dBpowerAMP V12.0
#
DISCID=8108280a
DTITLE=The Desert Rose Band - Running
DYEAR=1988
DGENRE=Country
TTITLE0=She Don't Love Nobody
TTITLE1=Running
TTITLE2=Hello Trouble
TTITLE3=I Still Believe in You
TTITLE4=Summer Wind
TTITLE5=For the Rich Man
TTITLE6=Step On Out
TTITLE7=Homeless
TTITLE8=Livin' in the House
TTITLE9=Our Songs
EXTD=
EXTT0=
EXTT1=
EXTT2=
EXTT3=
EXTT4=
EXTT5=
EXTT6=
EXTT7=
EXTT8=
EXTT9=
PLAYORDER=
